<svg version="1.1" id="Layer_1" xmlns="http://www.w3.org/2000/svg" xmlns:xlink="http://www.w3.org/1999/xlink" x="0px" y="0px"
	 width="100%" viewBox="0 0 500 500" enable-background="new 0 0 500 500" xml:space="preserve">
<path fill="#1E1E1E" opacity="1.000000" stroke="none" 
	d="
M272.000000,501.000000 
	C181.333359,501.000000 91.166710,501.000000 1.000048,501.000000 
	C1.000032,334.333405 1.000032,167.666794 1.000016,1.000138 
	C167.666565,1.000092 334.333130,1.000092 500.999756,1.000046 
	C500.999847,167.666519 500.999847,334.333038 500.999939,500.999786 
	C424.833344,501.000000 348.666656,501.000000 272.000000,501.000000 
M38.834328,263.498413 
	C38.838879,268.823883 39.078281,274.162567 38.778702,279.470886 
	C38.505787,284.306671 40.677261,287.442505 44.656792,289.540741 
	C47.143589,290.851868 49.739788,292.060333 52.419441,292.883301 
	C66.210564,297.118805 80.378288,297.067078 94.453491,295.367554 
	C101.098274,294.565186 107.640747,292.197754 113.987831,289.878021 
	C118.941216,288.067627 121.165451,284.013489 121.113190,278.462524 
	C120.939278,259.991486 120.954391,241.517349 121.081535,223.045670 
	C121.113976,218.332916 119.257439,214.976364 115.256142,212.864899 
	C112.335747,211.323837 109.293236,209.883270 106.144211,208.929031 
	C92.668739,204.845688 78.813126,204.955597 65.081879,206.619400 
	C58.280510,207.443527 51.585960,209.927872 45.106365,212.361938 
	C40.601177,214.054306 38.581715,217.753113 38.724422,223.061111 
	C39.077614,236.198486 38.833092,249.351944 38.834328,263.498413 
M221.115784,264.132202 
	C224.316895,270.288879 227.312088,271.888184 233.344299,271.204712 
	C236.256042,270.874847 239.245850,271.290161 242.179153,271.077057 
	C244.603424,270.900970 246.996628,270.297150 248.367065,270.061279 
	C247.439346,265.417999 246.272964,261.869049 246.107239,258.273926 
	C245.762527,250.797333 245.794418,243.292633 245.972931,235.806671 
	C246.080505,231.295517 243.842056,230.271820 240.060287,231.055832 
	C238.357071,231.408936 236.731308,232.135590 234.925400,232.741394 
	C238.776474,238.386093 239.052048,239.892563 237.296967,244.372025 
	C223.681747,244.828400 218.191711,251.198044 221.115784,264.132202 
M187.858871,265.549866 
	C186.854721,266.708710 185.850555,267.867554 183.844421,270.182739 
	C189.440872,270.182739 193.484451,270.182739 197.032745,270.182739 
	C196.679840,264.282684 195.896606,259.018707 196.315292,253.852127 
	C196.457779,252.093903 199.626755,250.580933 201.412796,248.955917 
	C202.738602,250.547028 205.047760,252.045731 205.207565,253.746414 
	C205.705704,259.047424 205.390228,264.424835 205.390228,270.810272 
	C208.439896,270.652191 212.398636,270.446960 215.196198,270.301941 
	C214.331390,265.473450 213.578644,261.835358 213.060989,258.164124 
	C212.760864,256.035614 213.007309,253.830719 212.715195,251.700302 
	C211.817474,245.153427 207.080566,242.425354 200.813126,244.768143 
	C199.421890,245.288208 198.093262,245.975723 196.587158,246.652985 
	C192.891602,242.965927 189.075745,244.047318 184.835373,246.400024 
	C189.834152,252.108398 188.333984,258.510559 187.858871,265.549866 
M320.215698,246.195648 
	C319.621460,246.221222 318.765900,246.516083 318.472687,246.231476 
	C314.759216,242.627319 311.359741,244.697754 307.730225,246.151749 
	C312.170441,254.225937 312.789215,261.766907 307.275269,270.095459 
	C311.988525,270.095459 315.973572,270.095459 320.192169,270.095459 
	C319.593750,266.934753 318.884125,264.372742 318.677185,261.770752 
	C318.455902,258.988464 318.076630,255.944595 318.964111,253.439209 
	C319.616791,251.596680 322.040314,249.699860 323.985901,249.284271 
	C324.959381,249.076355 327.669647,252.056366 327.781860,253.716980 
	C328.078644,258.109314 327.281525,262.565460 327.156921,267.002869 
	C327.122620,268.224335 327.877472,270.516937 328.345123,270.536591 
	C331.898132,270.685913 335.469757,270.392731 338.301422,270.269409 
	C337.176727,265.917725 336.202026,262.770782 335.592621,259.554657 
	C335.226166,257.620575 335.549744,255.566803 335.355408,253.587219 
	C334.441742,244.282104 329.643158,241.724808 320.215698,246.195648 
M379.976227,254.014679 
	C379.461517,259.189758 378.946838,264.364838 378.370331,270.161285 
	C381.099121,270.161285 385.119293,270.161285 387.882935,270.161285 
	C387.882935,264.242310 387.431305,258.943451 388.127533,253.799973 
	C388.371735,251.995728 391.435608,250.573166 393.211945,248.976334 
	C394.517609,250.591354 396.824097,252.141388 396.934021,253.834061 
	C397.219299,258.227142 396.465057,262.680176 396.293854,267.115784 
	C396.250336,268.244293 396.665253,270.303101 397.156067,270.394409 
	C400.921356,271.094971 404.833954,271.875244 407.243530,269.982544 
	C406.285522,265.928253 405.418579,262.951782 404.918274,259.914948 
	C404.542755,257.635132 404.780640,255.260269 404.498993,252.957886 
	C403.462250,244.482986 398.887482,242.028046 390.886200,245.400452 
	C389.723389,245.890549 387.827087,246.218048 386.984436,245.617920 
	C383.272217,242.974121 380.205658,244.679947 377.038910,246.154617 
	C378.105499,248.694687 379.039307,250.918488 379.976227,254.014679 
M343.910461,248.992355 
	C344.418152,253.668503 344.839600,258.355988 345.453094,263.018219 
	C346.446136,270.564941 351.208160,273.269501 358.224274,270.235901 
	C360.365082,269.310272 361.804260,268.563416 364.334991,270.334747 
	C366.700989,271.990753 370.330688,271.812408 371.814423,269.857483 
	C371.036621,265.401062 370.211700,262.095215 369.941772,258.744690 
	C369.648743,255.106979 370.193573,251.383881 369.703735,247.789230 
	C369.521210,246.449860 367.567047,244.561188 366.206543,244.358124 
	C364.157898,244.052338 361.921021,245.007462 360.631744,245.257980 
	C361.182404,251.143509 361.734589,256.159912 362.093811,261.190125 
	C362.342133,264.666931 360.198639,266.960114 357.091095,266.497803 
	C355.484222,266.258728 353.431152,263.420593 353.082458,261.485901 
	C352.352814,257.437347 352.813202,253.188797 352.376678,249.065598 
	C352.211151,247.502090 351.056305,244.892853 350.118103,244.784256 
	C347.623779,244.495544 345.001953,245.308395 342.430786,245.683151 
	C342.694305,246.630081 342.957825,247.577011 343.910461,248.992355 
M164.818649,271.124847 
	C167.961334,270.260468 170.798477,268.717957 174.393585,270.866333 
	C175.955399,271.799652 179.050858,270.166504 181.449753,269.699036 
	C176.433792,265.552704 178.105179,260.656006 177.931900,256.439484 
	C177.484879,245.562180 172.360458,241.595932 162.205887,245.068192 
	C159.944382,245.841476 158.136612,248.032898 156.276550,249.741867 
	C156.098938,249.905045 157.304550,252.036102 157.425781,251.993546 
	C159.614029,251.225525 161.694046,250.148682 163.883133,249.383789 
	C165.323822,248.880417 167.130127,248.187485 168.342010,248.667282 
	C169.264786,249.032639 170.181625,251.295898 169.880447,252.373703 
	C169.535568,253.607986 167.992523,254.773895 166.695511,255.408035 
	C165.087601,256.194153 163.158707,256.290253 161.437363,256.884155 
	C156.281097,258.663239 154.113678,261.639740 154.899261,265.991333 
	C155.854675,271.283661 159.790573,271.580444 164.818649,271.124847 
M259.463867,245.714874 
	C253.466980,250.252655 251.480515,256.985352 254.146332,263.737366 
	C256.380920,269.397125 261.093201,271.911194 268.371002,271.107422 
	C271.827179,270.725739 275.228973,270.003204 277.255432,265.051575 
	C274.109955,265.705933 272.178070,266.549225 270.337524,266.382690 
	C267.850983,266.157715 265.228699,265.527527 263.075287,264.331757 
	C262.003845,263.736786 261.158173,261.302521 261.504028,260.060486 
	C261.760956,259.137756 264.053467,258.482819 265.522125,258.263702 
	C267.975555,257.897675 270.510895,258.114410 272.983337,257.834534 
	C277.015228,257.378143 278.381622,255.184372 277.107117,251.223953 
	C275.007568,244.699615 268.613586,242.415604 259.463867,245.714874 
M423.800873,271.289734 
	C431.737793,270.853180 433.720459,269.826385 434.704712,265.172119 
	C432.611694,265.634155 430.709717,266.450256 428.849060,266.364929 
	C426.495087,266.256989 423.914612,265.865540 421.936646,264.722687 
	C420.733795,264.027679 420.049683,261.690399 420.027740,260.078674 
	C420.019470,259.471680 422.482361,258.559296 423.915833,258.273621 
	C425.686249,257.920807 427.645172,258.397858 429.364014,257.931549 
	C431.606354,257.323212 435.117706,256.535858 435.511658,255.113403 
	C436.097382,252.998703 434.998627,249.836060 433.558533,247.911163 
	C432.216034,246.116714 429.623779,244.741913 427.351166,244.252243 
	C419.521423,242.565216 413.000549,247.310165 411.831085,255.090897 
	C410.480560,264.076477 414.592377,269.995850 423.800873,271.289734 
M449.592865,271.023743 
	C451.753906,271.025543 453.914948,271.031555 456.075989,271.028351 
	C463.576172,271.017303 463.866821,270.659790 462.607971,263.360779 
	C458.708221,264.799103 454.697968,266.278198 450.687714,267.757263 
	C450.432861,267.235168 450.178009,266.713043 449.923157,266.190948 
	C454.476776,259.506805 459.030396,252.822647 463.584015,246.138519 
	C463.195099,245.579651 462.806152,245.020798 462.417236,244.461945 
	C457.001495,244.461945 451.585419,244.424637 446.170105,244.472397 
	C440.706848,244.520554 439.620972,246.611343 442.082489,251.651062 
	C445.535797,250.316803 448.981537,248.985458 452.427277,247.654114 
	C452.727905,248.150711 453.028534,248.647293 453.329163,249.143875 
	C448.755188,255.825531 444.181213,262.507202 439.607208,269.188843 
	C439.905640,269.800171 440.204071,270.411499 440.502472,271.022827 
	C443.215302,271.022827 445.928101,271.022827 449.592865,271.023743 
M136.170517,233.408585 
	C137.278290,235.846161 139.226730,238.243500 139.345657,240.728409 
	C139.815399,250.541931 141.400314,260.538300 136.462677,270.157532 
	C141.327591,270.157532 145.818985,270.157532 149.560074,270.157532 
	C148.662155,265.884125 147.403366,262.268036 147.234436,258.601776 
	C146.866882,250.625259 147.168976,242.619370 146.906265,234.635086 
	C146.861420,233.272461 145.309128,230.787903 144.561111,230.828110 
	C141.719803,230.980865 138.922760,231.957138 136.170517,233.408585 
M284.179810,266.110779 
	C283.435333,267.235962 282.690826,268.361145 281.455017,270.228882 
	C287.282257,270.228882 292.069397,270.228882 295.956909,270.228882 
	C294.920410,265.268738 293.428009,260.783356 293.179169,256.229980 
	C292.899750,251.115906 294.751648,249.962524 299.817139,251.049881 
	C302.248718,251.571823 304.178528,251.053329 303.843170,248.472504 
	C303.671234,247.149506 301.592041,245.138016 300.328033,245.102524 
	C298.182739,245.042267 296.000427,246.299454 293.833801,247.003357 
	C290.279205,243.571472 286.668121,243.486603 282.038788,246.807877 
	C287.355774,252.380447 285.465546,259.015717 284.179810,266.110779 
z"/>
<path fill="#7763E7" opacity="1.000000" stroke="none" 
	d="
M38.831535,262.998657 
	C38.833092,249.351944 39.077614,236.198486 38.724422,223.061111 
	C38.581715,217.753113 40.601177,214.054306 45.106365,212.361938 
	C51.585960,209.927872 58.280510,207.443527 65.081879,206.619400 
	C78.813126,204.955597 92.668739,204.845688 106.144211,208.929031 
	C109.293236,209.883270 112.335747,211.323837 115.256142,212.864899 
	C119.257439,214.976364 121.113976,218.332916 121.081535,223.045670 
	C120.954391,241.517349 120.939278,259.991486 121.113190,278.462524 
	C121.165451,284.013489 118.941216,288.067627 113.987831,289.878021 
	C107.640747,292.197754 101.098274,294.565186 94.453491,295.367554 
	C80.378288,297.067078 66.210564,297.118805 52.419441,292.883301 
	C49.739788,292.060333 47.143589,290.851868 44.656792,289.540741 
	C40.677261,287.442505 38.505787,284.306671 38.778702,279.470886 
	C39.078281,274.162567 38.838879,268.823883 38.831535,262.998657 
M61.575035,235.033386 
	C55.852470,233.488510 50.129902,231.943634 43.889515,230.258957 
	C43.889515,235.657440 43.877041,240.937317 43.892567,246.217133 
	C43.913559,253.356201 44.704067,254.589188 51.624352,256.967468 
	C67.156815,262.305511 83.040863,262.203217 98.963150,259.376373 
	C103.317284,258.603333 107.561043,256.864441 111.645325,255.086197 
	C113.264183,254.381332 115.352661,252.424698 115.440536,250.932770 
	C115.845009,244.065094 115.618790,237.160278 115.618790,229.667130 
	C97.887932,237.048660 80.314201,237.715851 61.575035,235.033386 
M104.431778,288.119843 
	C108.122742,285.842255 114.275055,284.162048 115.002388,281.165192 
	C116.614883,274.521179 115.504654,267.216431 115.504654,259.930511 
	C91.322739,268.873871 67.803848,268.622070 43.863346,260.019135 
	C43.863346,265.559235 43.879173,270.540924 43.859722,275.522491 
	C43.828693,283.468262 44.340694,284.523987 51.936615,287.034149 
	C69.012428,292.676941 86.308418,292.292267 104.431778,288.119843 
M105.183769,214.085632 
	C87.386375,209.544708 69.607224,209.196442 52.060745,215.044739 
	C49.052284,216.047470 46.657253,218.890671 43.978844,220.883652 
	C46.580597,222.934860 48.877308,225.910904 51.833961,226.886124 
	C70.057510,232.896973 88.514435,232.745438 106.809372,227.221298 
	C110.012337,226.254166 112.613289,223.293304 115.492271,221.253204 
	C112.620110,219.060379 109.752060,216.862106 106.868690,214.684113 
	C106.612579,214.490662 106.256798,214.429184 105.183769,214.085632 
z"/>
<path fill="#E1E1E1" opacity="1.000000" stroke="none" 
	d="
M221.024475,263.744873 
	C218.191711,251.198044 223.681747,244.828400 237.296967,244.372025 
	C239.052048,239.892563 238.776474,238.386093 234.925400,232.741394 
	C236.731308,232.135590 238.357071,231.408936 240.060287,231.055832 
	C243.842056,230.271820 246.080505,231.295517 245.972931,235.806671 
	C245.794418,243.292633 245.762527,250.797333 246.107239,258.273926 
	C246.272964,261.869049 247.439346,265.417999 248.367065,270.061279 
	C246.996628,270.297150 244.603424,270.900970 242.179153,271.077057 
	C239.245850,271.290161 236.256042,270.874847 233.344299,271.204712 
	C227.312088,271.888184 224.316895,270.288879 221.024475,263.744873 
M237.987717,262.987915 
	C237.990997,259.664886 238.360809,256.284424 237.852280,253.041641 
	C237.572678,251.258713 235.740158,248.293991 234.738480,248.346680 
	C232.660828,248.455948 229.217041,249.924927 228.921616,251.365372 
	C228.096664,255.387787 227.630981,259.975464 228.804443,263.792542 
	C230.292603,268.633270 235.066620,268.403992 237.987717,262.987915 
z"/>
<path fill="#DDDDDD" opacity="1.000000" stroke="none" 
	d="
M187.957916,265.136963 
	C188.333984,258.510559 189.834152,252.108398 184.835373,246.400024 
	C189.075745,244.047318 192.891602,242.965927 196.587158,246.652985 
	C198.093262,245.975723 199.421890,245.288208 200.813126,244.768143 
	C207.080566,242.425354 211.817474,245.153427 212.715195,251.700302 
	C213.007309,253.830719 212.760864,256.035614 213.060989,258.164124 
	C213.578644,261.835358 214.331390,265.473450 215.196198,270.301941 
	C212.398636,270.446960 208.439896,270.652191 205.390228,270.810272 
	C205.390228,264.424835 205.705704,259.047424 205.207565,253.746414 
	C205.047760,252.045731 202.738602,250.547028 201.412796,248.955902 
	C199.626755,250.580933 196.457779,252.093903 196.315292,253.852127 
	C195.896606,259.018707 196.679840,264.282684 197.032745,270.182739 
	C193.484451,270.182739 189.440872,270.182739 183.844421,270.182739 
	C185.850555,267.867554 186.854721,266.708710 187.957916,265.136963 
z"/>
<path fill="#DFDFDF" opacity="1.000000" stroke="none" 
	d="
M320.606659,246.034668 
	C329.643158,241.724808 334.441742,244.282104 335.355408,253.587219 
	C335.549744,255.566803 335.226166,257.620575 335.592621,259.554657 
	C336.202026,262.770782 337.176727,265.917725 338.301422,270.269409 
	C335.469757,270.392731 331.898132,270.685913 328.345123,270.536591 
	C327.877472,270.516937 327.122620,268.224335 327.156921,267.002869 
	C327.281525,262.565460 328.078644,258.109314 327.781860,253.716980 
	C327.669647,252.056366 324.959381,249.076355 323.985901,249.284271 
	C322.040314,249.699860 319.616791,251.596680 318.964111,253.439209 
	C318.076630,255.944595 318.455902,258.988464 318.677185,261.770752 
	C318.884125,264.372742 319.593750,266.934753 320.192169,270.095459 
	C315.973572,270.095459 311.988525,270.095459 307.275269,270.095459 
	C312.789215,261.766907 312.170441,254.225937 307.730225,246.151749 
	C311.359741,244.697754 314.759216,242.627319 318.472687,246.231476 
	C318.765900,246.516083 319.621460,246.221222 320.606659,246.034668 
z"/>
<path fill="#DDDDDD" opacity="1.000000" stroke="none" 
	d="
M379.974670,253.578491 
	C379.039307,250.918488 378.105499,248.694687 377.038910,246.154617 
	C380.205658,244.679947 383.272217,242.974121 386.984436,245.617920 
	C387.827087,246.218048 389.723389,245.890549 390.886200,245.400452 
	C398.887482,242.028046 403.462250,244.482986 404.498993,252.957886 
	C404.780640,255.260269 404.542755,257.635132 404.918274,259.914948 
	C405.418579,262.951782 406.285522,265.928253 407.243530,269.982544 
	C404.833954,271.875244 400.921356,271.094971 397.156067,270.394409 
	C396.665253,270.303101 396.250336,268.244293 396.293854,267.115784 
	C396.465057,262.680176 397.219299,258.227142 396.934021,253.834061 
	C396.824097,252.141388 394.517609,250.591354 393.211945,248.976318 
	C391.435608,250.573166 388.371735,251.995728 388.127533,253.799973 
	C387.431305,258.943451 387.882935,264.242310 387.882935,270.161285 
	C385.119293,270.161285 381.099121,270.161285 378.370331,270.161285 
	C378.946838,264.364838 379.461517,259.189758 379.974670,253.578491 
z"/>
<path fill="#DBDBDB" opacity="1.000000" stroke="none" 
	d="
M343.565918,248.758148 
	C342.957825,247.577011 342.694305,246.630081 342.430786,245.683151 
	C345.001953,245.308395 347.623779,244.495544 350.118103,244.784256 
	C351.056305,244.892853 352.211151,247.502090 352.376678,249.065598 
	C352.813202,253.188797 352.352814,257.437347 353.082458,261.485901 
	C353.431152,263.420593 355.484222,266.258728 357.091095,266.497803 
	C360.198639,266.960114 362.342133,264.666931 362.093811,261.190125 
	C361.734589,256.159912 361.182404,251.143509 360.631744,245.257980 
	C361.921021,245.007462 364.157898,244.052338 366.206543,244.358124 
	C367.567047,244.561188 369.521210,246.449860 369.703735,247.789230 
	C370.193573,251.383881 369.648743,255.106979 369.941772,258.744690 
	C370.211700,262.095215 371.036621,265.401062 371.814423,269.857483 
	C370.330688,271.812408 366.700989,271.990753 364.334991,270.334747 
	C361.804260,268.563416 360.365082,269.310272 358.224274,270.235901 
	C351.208160,273.269501 346.446136,270.564941 345.453094,263.018219 
	C344.839600,258.355988 344.418152,253.668503 343.565918,248.758148 
z"/>
<path fill="#DFDFDF" opacity="1.000000" stroke="none" 
	d="
M164.432739,271.165283 
	C159.790573,271.580444 155.854675,271.283661 154.899261,265.991333 
	C154.113678,261.639740 156.281097,258.663239 161.437363,256.884155 
	C163.158707,256.290253 165.087601,256.194153 166.695511,255.408035 
	C167.992523,254.773895 169.535568,253.607986 169.880447,252.373703 
	C170.181625,251.295898 169.264786,249.032639 168.342010,248.667282 
	C167.130127,248.187485 165.323822,248.880417 163.883133,249.383789 
	C161.694046,250.148682 159.614029,251.225525 157.425781,251.993546 
	C157.304550,252.036102 156.098938,249.905045 156.276550,249.741867 
	C158.136612,248.032898 159.944382,245.841476 162.205887,245.068192 
	C172.360458,241.595932 177.484879,245.562180 177.931900,256.439484 
	C178.105179,260.656006 176.433792,265.552704 181.449753,269.699036 
	C179.050858,270.166504 175.955399,271.799652 174.393585,270.866333 
	C170.798477,268.717957 167.961334,270.260468 164.432739,271.165283 
M165.488419,259.043945 
	C164.802307,259.484009 163.643326,259.818115 163.516632,260.383545 
	C163.096848,262.257050 162.536606,264.386108 163.098541,266.058136 
	C163.339615,266.775452 167.114563,267.381561 167.704483,266.690308 
	C169.112366,265.040558 169.581223,262.589478 170.429291,260.462006 
	C169.023697,259.937622 167.618103,259.413239 165.488419,259.043945 
z"/>
<path fill="#DEDEDE" opacity="1.000000" stroke="none" 
	d="
M259.786621,245.497177 
	C268.613586,242.415604 275.007568,244.699615 277.107117,251.223953 
	C278.381622,255.184372 277.015228,257.378143 272.983337,257.834534 
	C270.510895,258.114410 267.975555,257.897675 265.522125,258.263702 
	C264.053467,258.482819 261.760956,259.137756 261.504028,260.060486 
	C261.158173,261.302521 262.003845,263.736786 263.075287,264.331757 
	C265.228699,265.527527 267.850983,266.157715 270.337524,266.382690 
	C272.178070,266.549225 274.109955,265.705933 277.255432,265.051575 
	C275.228973,270.003204 271.827179,270.725739 268.371002,271.107422 
	C261.093201,271.911194 256.380920,269.397125 254.146332,263.737366 
	C251.480515,256.985352 253.466980,250.252655 259.786621,245.497177 
M270.132935,250.290863 
	C268.056000,249.572601 265.503510,247.769806 264.025635,248.417816 
	C262.281494,249.182602 261.466797,252.067047 259.681885,254.948212 
	C263.511902,254.948212 265.629333,255.006454 267.742188,254.933334 
	C270.325165,254.843918 271.313049,253.567841 270.132935,250.290863 
z"/>
<path fill="#E0E0E0" opacity="1.000000" stroke="none" 
	d="
M423.411560,271.245728 
	C414.592377,269.995850 410.480560,264.076477 411.831085,255.090897 
	C413.000549,247.310165 419.521423,242.565216 427.351166,244.252243 
	C429.623779,244.741913 432.216034,246.116714 433.558533,247.911163 
	C434.998627,249.836060 436.097382,252.998703 435.511658,255.113403 
	C435.117706,256.535858 431.606354,257.323212 429.364014,257.931549 
	C427.645172,258.397858 425.686249,257.920807 423.915833,258.273621 
	C422.482361,258.559296 420.019470,259.471680 420.027740,260.078674 
	C420.049683,261.690399 420.733795,264.027679 421.936646,264.722687 
	C423.914612,265.865540 426.495087,266.256989 428.849060,266.364929 
	C430.709717,266.450256 432.611694,265.634155 434.704712,265.172119 
	C433.720459,269.826385 431.737793,270.853180 423.411560,271.245728 
M422.188538,248.213898 
	C421.036530,250.138885 419.884491,252.063873 418.732452,253.988861 
	C419.097473,254.389694 419.462463,254.790527 419.827454,255.191360 
	C422.778717,253.696686 427.544373,257.605560 428.821838,252.421722 
	C429.610596,249.221054 426.758026,247.068069 422.188538,248.213898 
z"/>
<path fill="#DEDEDE" opacity="1.000000" stroke="none" 
	d="
M449.116882,271.023285 
	C445.928101,271.022827 443.215302,271.022827 440.502472,271.022827 
	C440.204071,270.411499 439.905640,269.800171 439.607208,269.188843 
	C444.181213,262.507202 448.755188,255.825531 453.329163,249.143875 
	C453.028534,248.647293 452.727905,248.150711 452.427277,247.654114 
	C448.981537,248.985458 445.535797,250.316803 442.082489,251.651062 
	C439.620972,246.611343 440.706848,244.520554 446.170105,244.472397 
	C451.585419,244.424637 457.001495,244.461945 462.417236,244.461945 
	C462.806152,245.020798 463.195099,245.579651 463.584015,246.138519 
	C459.030396,252.822647 454.476776,259.506805 449.923157,266.190948 
	C450.178009,266.713043 450.432861,267.235168 450.687714,267.757263 
	C454.697968,266.278198 458.708221,264.799103 462.607971,263.360779 
	C463.866821,270.659790 463.576172,271.017303 456.075989,271.028351 
	C453.914948,271.031555 451.753906,271.025543 449.116882,271.023285 
z"/>
<path fill="#E1E1E1" opacity="1.000000" stroke="none" 
	d="
M136.139847,233.017059 
	C138.922760,231.957138 141.719803,230.980865 144.561111,230.828110 
	C145.309128,230.787903 146.861420,233.272461 146.906265,234.635086 
	C147.168976,242.619370 146.866882,250.625259 147.234436,258.601776 
	C147.403366,262.268036 148.662155,265.884125 149.560074,270.157532 
	C145.818985,270.157532 141.327591,270.157532 136.462677,270.157532 
	C141.400314,260.538300 139.815399,250.541931 139.345657,240.728409 
	C139.226730,238.243500 137.278290,235.846161 136.139847,233.017059 
z"/>
<path fill="#DBDBDB" opacity="1.000000" stroke="none" 
	d="
M284.464417,265.799561 
	C285.465546,259.015717 287.355774,252.380447 282.038788,246.807877 
	C286.668121,243.486603 290.279205,243.571472 293.833740,247.003143 
	C296.000427,246.299454 298.182739,245.042267 300.328033,245.102524 
	C301.592041,245.138016 303.671234,247.149506 303.843170,248.472504 
	C304.178528,251.053329 302.248718,251.571823 299.817139,251.049881 
	C294.751648,249.962524 292.899750,251.115906 293.179169,256.229980 
	C293.428009,260.783356 294.920410,265.268738 295.956909,270.228882 
	C292.069397,270.228882 287.282257,270.228882 281.455017,270.228882 
	C282.690826,268.361145 283.435333,267.235962 284.464417,265.799561 
z"/>
<path fill="#1F1E25" opacity="1.000000" stroke="none" 
	d="
M62.007912,235.084183 
	C80.314201,237.715851 97.887932,237.048660 115.618790,229.667130 
	C115.618790,237.160278 115.845009,244.065094 115.440536,250.932770 
	C115.352661,252.424698 113.264183,254.381332 111.645325,255.086197 
	C107.561043,256.864441 103.317284,258.603333 98.963150,259.376373 
	C83.040863,262.203217 67.156815,262.305511 51.624352,256.967468 
	C44.704067,254.589188 43.913559,253.356201 43.892567,246.217133 
	C43.877041,240.937317 43.889515,235.657440 43.889515,230.258957 
	C50.129902,231.943634 55.852470,233.488510 62.007912,235.084183 
z"/>
<path fill="#1F1E25" opacity="1.000000" stroke="none" 
	d="
M104.048103,288.244263 
	C86.308418,292.292267 69.012428,292.676941 51.936615,287.034149 
	C44.340694,284.523987 43.828693,283.468262 43.859722,275.522491 
	C43.879173,270.540924 43.863346,265.559235 43.863346,260.019135 
	C67.803848,268.622070 91.322739,268.873871 115.504654,259.930511 
	C115.504654,267.216431 116.614883,274.521179 115.002388,281.165192 
	C114.275055,284.162048 108.122742,285.842255 104.048103,288.244263 
z"/>
<path fill="#1F1E26" opacity="1.000000" stroke="none" 
	d="
M105.565536,214.196014 
	C106.256798,214.429184 106.612579,214.490662 106.868690,214.684113 
	C109.752060,216.862106 112.620110,219.060379 115.492271,221.253204 
	C112.613289,223.293304 110.012337,226.254166 106.809372,227.221298 
	C88.514435,232.745438 70.057510,232.896973 51.833961,226.886124 
	C48.877308,225.910904 46.580597,222.934860 43.978848,220.883667 
	C46.657253,218.890671 49.052284,216.047470 52.060745,215.044739 
	C69.607224,209.196442 87.386375,209.544708 105.565536,214.196014 
z"/>
<path fill="#242424" opacity="1.000000" stroke="none" 
	d="
M237.947083,263.431091 
	C235.066620,268.403992 230.292603,268.633270 228.804443,263.792542 
	C227.630981,259.975464 228.096664,255.387787 228.921616,251.365372 
	C229.217041,249.924927 232.660828,248.455948 234.738480,248.346680 
	C235.740158,248.293991 237.572678,251.258713 237.852280,253.041641 
	C238.360809,256.284424 237.990997,259.664886 237.947083,263.431091 
z"/>
<path fill="#2D2D2D" opacity="1.000000" stroke="none" 
	d="
M165.850464,258.966400 
	C167.618103,259.413239 169.023697,259.937622 170.429291,260.462006 
	C169.581223,262.589478 169.112366,265.040558 167.704483,266.690308 
	C167.114563,267.381561 163.339615,266.775452 163.098541,266.058136 
	C162.536606,264.386108 163.096848,262.257050 163.516632,260.383545 
	C163.643326,259.818115 164.802307,259.484009 165.850464,258.966400 
z"/>
<path fill="#2D2D2D" opacity="1.000000" stroke="none" 
	d="
M270.258972,250.666550 
	C271.313049,253.567841 270.325165,254.843918 267.742188,254.933334 
	C265.629333,255.006454 263.511902,254.948212 259.681885,254.948212 
	C261.466797,252.067047 262.281494,249.182602 264.025635,248.417816 
	C265.503510,247.769806 268.056000,249.572601 270.258972,250.666550 
z"/>
<path fill="#242424" opacity="1.000000" stroke="none" 
	d="
M422.568085,248.073273 
	C426.758026,247.068069 429.610596,249.221054 428.821838,252.421722 
	C427.544373,257.605560 422.778717,253.696686 419.827454,255.191360 
	C419.462463,254.790527 419.097473,254.389694 418.732452,253.988861 
	C419.884491,252.063873 421.036530,250.138885 422.568085,248.073273 
z"/>
</svg>